<!-- Generated by IcoMoon.io -->
<svg version="1.1" xmlns="http://www.w3.org/2000/svg" width="1024" height="1024" viewBox="0 0 1024 1024">
<title></title>
<g id="icomoon-ignore">
</g>
<path fill="#000" d="M712.192 286.72l-27.136 51.712 32.256-20.992c32.256-20.992 86.528-40.96 111.616-40.96 9.728 0 15.872-4.608 22.528-15.872 4.608-8.704 8.704-17.92 8.704-20.48s-27.136-4.608-60.416-4.608h-60.416l-27.136 51.2z"></path>
<path fill="#000" d="M785.408 291.84c-69.12 22.016-132.608 77.824-167.424 147.968-19.968 39.936-21.504 46.080-23.040 94.208-2.56 60.416 4.096 97.28 25.6 137.728 39.936 75.264 134.144 123.392 223.744 114.176 36.864-3.584 67.072-14.336 67.072-24.064 0.512-3.584 4.608-37.888 10.24-75.776 5.12-37.888 8.704-69.632 8.192-70.144-1.024-1.024-12.288 4.096-25.088 11.264-43.008 24.576-98.816 22.016-131.584-5.632-22.528-19.456-30.72-38.4-30.72-72.704 0-96.768 102.912-154.624 185.344-103.936 13.312 8.704 24.576 14.848 24.576 14.336 2.048-11.264 18.944-160.256 18.432-160.768s-14.336-4.608-31.232-9.216c-42.496-10.752-114.688-9.728-154.112 2.56z"></path>
<path fill="#000" d="M64.512 322.048c-1.536 7.168-4.096 26.112-5.632 41.472-2.048 15.36-4.608 32.256-5.632 36.864-2.56 8.192 1.024 9.216 30.208 9.216 17.92 0 53.248 1.536 78.848 3.072l46.080 3.584-4.096 23.552c-33.28 209.408-45.568 288.768-45.568 297.472 0 9.728 3.072 10.24 61.44 10.24 33.792 0 61.44-1.024 61.44-2.048s11.264-73.216 25.6-160.768c14.336-87.552 25.6-161.28 25.6-164.352 0-3.584 29.696-6.144 80.384-6.656l80.896-1.536 6.144-35.84c10.752-63.488 17.408-57.344-66.048-60.928-40.448-1.536-139.264-3.584-220.16-5.12l-146.944-2.048-2.56 13.824z"></path>
<path fill="#000" d="M816.64 454.144c-14.336 8.192-32.256 24.064-40.96 36.352-12.8 18.944-15.36 27.136-14.848 51.2 0.512 55.296 27.648 82.944 80.384 82.944 62.464 0 111.104-47.616 111.104-108.544 0-43.008-31.744-70.656-84.48-74.24-20.48-1.536-30.72 1.024-51.2 12.288z"></path>
<path fill="#000" d="M363.52 461.824c0 3.584 16.896 68.608 37.376 144.384l36.864 138.24 16.896 4.096c9.216 2.56 40.96 3.584 71.168 3.072l54.784-1.536 18.944-32.256 18.432-32.768-11.776-29.184c-13.824-33.792-24.576-97.792-20.48-118.784 1.536-8.192 2.048-14.848 1.024-14.848-1.536 0-14.336 22.016-28.672 49.152s-27.648 47.616-29.184 46.592c-1.536-1.536-9.216-30.208-17.408-63.488-8.704-33.28-17.92-69.12-20.48-79.872l-5.12-18.944h-60.928c-46.080 0-61.44 1.536-61.44 6.144z"></path>
</svg>
